<svg width="503" height="52" viewBox="0 0 503 52" fill="none" xmlns="http://www.w3.org/2000/svg">
<g filter="url(#filter0_d_41_106)">
<path d="M14.5364 41.516C13.4757 41.516 12.5727 41.1577 11.8274 40.441C11.1107 39.6957 10.7524 38.7927 10.7524 37.732C10.7524 36.6427 11.1107 35.7397 11.8274 35.023C12.5727 34.3063 13.4757 33.948 14.5364 33.948C15.5971 33.948 16.4857 34.3063 17.2024 35.023C17.9477 35.7397 18.3204 36.6427 18.3204 37.732C18.3204 38.7927 17.9477 39.6957 17.2024 40.441C16.4857 41.1577 15.5971 41.516 14.5364 41.516ZM39.4798 41.516C38.4191 41.516 37.5161 41.1577 36.7708 40.441C36.0541 39.6957 35.6958 38.7927 35.6958 37.732C35.6958 36.6427 36.0541 35.7397 36.7708 35.023C37.5161 34.3063 38.4191 33.948 39.4798 33.948C40.5404 33.948 41.4291 34.3063 42.1458 35.023C42.8911 35.7397 43.2638 36.6427 43.2638 37.732C43.2638 38.7927 42.8911 39.6957 42.1458 40.441C41.4291 41.1577 40.5404 41.516 39.4798 41.516ZM64.4231 27.584C63.3625 27.584 62.4595 27.2257 61.7141 26.509C60.9975 25.7637 60.6391 24.8607 60.6391 23.8C60.6391 22.7107 60.9975 21.8077 61.7141 21.091C62.4595 20.3743 63.3625 20.016 64.4231 20.016C65.4838 20.016 66.3725 20.3743 67.0891 21.091C67.8345 21.8077 68.2071 22.7107 68.2071 23.8C68.2071 24.8607 67.8345 25.7637 67.0891 26.509C66.3725 27.2257 65.4838 27.584 64.4231 27.584ZM64.4231 41.516C63.3625 41.516 62.4595 41.1577 61.7141 40.441C60.9975 39.6957 60.6391 38.7927 60.6391 37.732C60.6391 36.6427 60.9975 35.7397 61.7141 35.023C62.4595 34.3063 63.3625 33.948 64.4231 33.948C65.4838 33.948 66.3725 34.3063 67.0891 35.023C67.8345 35.7397 68.2071 36.6427 68.2071 37.732C68.2071 38.7927 67.8345 39.6957 67.0891 40.441C66.3725 41.1577 65.4838 41.516 64.4231 41.516ZM89.3665 27.584C88.3058 27.584 87.4028 27.2257 86.6575 26.509C85.9408 25.7637 85.5825 24.8607 85.5825 23.8C85.5825 22.7107 85.9408 21.8077 86.6575 21.091C87.4028 20.3743 88.3058 20.016 89.3665 20.016C90.4272 20.016 91.3158 20.3743 92.0325 21.091C92.7778 21.8077 93.1505 22.7107 93.1505 23.8C93.1505 24.8607 92.7778 25.7637 92.0325 26.509C91.3158 27.2257 90.4272 27.584 89.3665 27.584ZM89.3665 41.516C88.3058 41.516 87.4028 41.1577 86.6575 40.441C85.9408 39.6957 85.5825 38.7927 85.5825 37.732C85.5825 36.6427 85.9408 35.7397 86.6575 35.023C87.4028 34.3063 88.3058 33.948 89.3665 33.948C90.4272 33.948 91.3158 34.3063 92.0325 35.023C92.7778 35.7397 93.1505 36.6427 93.1505 37.732C93.1505 38.7927 92.7778 39.6957 92.0325 40.441C91.3158 41.1577 90.4272 41.516 89.3665 41.516ZM111.73 41V29.003L102.27 13.05H108.419L114.525 23.929L120.674 13.05H126.35L116.89 29.003V41H111.73ZM137.06 41.516C134.566 41.516 132.617 40.9427 131.212 39.796C129.836 38.6207 129.148 36.9867 129.148 34.894C129.148 32.8873 129.808 31.3537 131.126 30.293C132.474 29.2323 134.409 28.702 136.931 28.702H143.338V28.315C143.338 26.8817 142.994 25.864 142.306 25.262C141.618 24.6313 140.472 24.316 138.866 24.316C136.344 24.316 133.993 24.9467 131.814 26.208L130.309 22.123C132.975 20.7183 136.014 20.016 139.425 20.016C142.521 20.016 144.786 20.661 146.219 21.951C147.681 23.241 148.412 25.262 148.412 28.014V41H144.671L144.241 39.237C143.123 40.0397 141.977 40.6273 140.801 41C139.655 41.344 138.408 41.516 137.06 41.516ZM138.135 37.216C140.085 37.216 141.819 36.786 143.338 35.926V32.529H137.404C136.315 32.529 135.527 32.7153 135.039 33.088C134.552 33.432 134.308 33.9767 134.308 34.722C134.308 35.5533 134.609 36.184 135.211 36.614C135.842 37.0153 136.817 37.216 138.135 37.216ZM154.135 41V36.356H161.703V21.693L156.672 25.606L154.264 22.295L163.337 13.652H166.863V36.356H174.431V41H154.135ZM187.678 41.516C184.983 41.516 182.833 40.5557 181.228 38.635C179.651 36.6857 178.863 34.0627 178.863 30.766C178.863 27.4693 179.651 24.8607 181.228 22.94C182.833 20.9907 184.983 20.016 187.678 20.016C188.624 20.016 189.556 20.1593 190.473 20.446C191.419 20.704 192.351 21.1197 193.268 21.693V10.47H198.342V41H194.601L194.171 39.28C192.05 40.7707 189.885 41.516 187.678 41.516ZM188.968 36.872C190.43 36.872 191.863 36.485 193.268 35.711V25.821C191.863 25.047 190.43 24.66 188.968 24.66C185.643 24.66 183.98 26.6953 183.98 30.766C183.98 34.8367 185.643 36.872 188.968 36.872ZM211.89 41.516C209.396 41.516 207.447 40.9427 206.042 39.796C204.666 38.6207 203.978 36.9867 203.978 34.894C203.978 32.8873 204.638 31.3537 205.956 30.293C207.304 29.2323 209.239 28.702 211.761 28.702H218.168V28.315C218.168 26.8817 217.824 25.864 217.136 25.262C216.448 24.6313 215.302 24.316 213.696 24.316C211.174 24.316 208.823 24.9467 206.644 26.208L205.139 22.123C207.805 20.7183 210.844 20.016 214.255 20.016C217.351 20.016 219.616 20.661 221.049 21.951C222.511 23.241 223.242 25.262 223.242 28.014V41H219.501L219.071 39.237C217.953 40.0397 216.807 40.6273 215.631 41C214.485 41.344 213.238 41.516 211.89 41.516ZM212.965 37.216C214.915 37.216 216.649 36.786 218.168 35.926V32.529H212.234C211.145 32.529 210.357 32.7153 209.869 33.088C209.382 33.432 209.138 33.9767 209.138 34.722C209.138 35.5533 209.439 36.184 210.041 36.614C210.672 37.0153 211.647 37.216 212.965 37.216ZM236.834 41.516C234.34 41.516 232.39 40.9427 230.986 39.796C229.61 38.6207 228.922 36.9867 228.922 34.894C228.922 32.8873 229.581 31.3537 230.9 30.293C232.247 29.2323 234.182 28.702 236.705 28.702H243.112V28.315C243.112 26.8817 242.768 25.864 242.08 25.262C241.392 24.6313 240.245 24.316 238.64 24.316C236.117 24.316 233.766 24.9467 231.588 26.208L230.083 22.123C232.749 20.7183 235.787 20.016 239.199 20.016C242.295 20.016 244.559 20.661 245.993 21.951C247.455 23.241 248.186 25.262 248.186 28.014V41H244.445L244.015 39.237C242.897 40.0397 241.75 40.6273 240.575 41C239.428 41.344 238.181 41.516 236.834 41.516ZM237.909 37.216C239.858 37.216 241.592 36.786 243.112 35.926V32.529H237.178C236.088 32.529 235.3 32.7153 234.813 33.088C234.325 33.432 234.082 33.9767 234.082 34.722C234.082 35.5533 234.383 36.184 234.985 36.614C235.615 37.0153 236.59 37.216 237.909 37.216ZM261.777 41.516C259.283 41.516 257.334 40.9427 255.929 39.796C254.553 38.6207 253.865 36.9867 253.865 34.894C253.865 32.8873 254.524 31.3537 255.843 30.293C257.19 29.2323 259.125 28.702 261.648 28.702H268.055V28.315C268.055 26.8817 267.711 25.864 267.023 25.262C266.335 24.6313 265.188 24.316 263.583 24.316C261.06 24.316 258.71 24.9467 256.531 26.208L255.026 22.123C257.692 20.7183 260.731 20.016 264.142 20.016C267.238 20.016 269.503 20.661 270.936 21.951C272.398 23.241 273.129 25.262 273.129 28.014V41H269.388L268.958 39.237C267.84 40.0397 266.693 40.6273 265.518 41C264.371 41.344 263.124 41.516 261.777 41.516ZM262.852 37.216C264.801 37.216 266.536 36.786 268.055 35.926V32.529H262.121C261.032 32.529 260.243 32.7153 259.756 33.088C259.269 33.432 259.025 33.9767 259.025 34.722C259.025 35.5533 259.326 36.184 259.928 36.614C260.559 37.0153 261.533 37.216 262.852 37.216ZM315.491 41.516C311.707 41.516 308.811 40.2833 306.805 37.818C304.827 35.324 303.838 31.7263 303.838 27.025C303.838 22.3237 304.827 18.7403 306.805 16.275C308.811 13.781 311.707 12.534 315.491 12.534C318.644 12.534 321.367 13.5517 323.661 15.587L321.038 19.586C319.375 18.0953 317.54 17.35 315.534 17.35C311.234 17.35 309.084 20.575 309.084 27.025C309.084 33.475 311.234 36.7 315.534 36.7C316.68 36.7 317.741 36.4707 318.716 36.012C319.69 35.5533 320.665 34.8367 321.64 33.862L324.564 37.603C323.245 38.9503 321.869 39.9393 320.436 40.57C319.002 41.2007 317.354 41.516 315.491 41.516ZM338.8 41.516C335.389 41.516 332.766 40.3263 330.931 37.947C329.125 35.539 328.222 32.0417 328.222 27.455C328.222 22.8683 329.125 19.3853 330.931 17.006C332.766 14.598 335.389 13.394 338.8 13.394C342.211 13.394 344.82 14.598 346.626 17.006C348.461 19.3853 349.378 22.8683 349.378 27.455C349.378 32.0417 348.461 35.539 346.626 37.947C344.82 40.3263 342.211 41.516 338.8 41.516ZM333.554 30.078L342.842 20.446C341.953 18.898 340.606 18.124 338.8 18.124C335.217 18.124 333.425 21.2343 333.425 27.455C333.425 28.3723 333.468 29.2467 333.554 30.078ZM338.8 36.786C342.383 36.786 344.175 33.6757 344.175 27.455C344.175 26.509 344.132 25.6347 344.046 24.832L334.758 34.464C335.675 36.012 337.023 36.786 338.8 36.786ZM362.281 41.516C359.587 41.516 357.437 40.5557 355.831 38.635C354.255 36.6857 353.466 34.0627 353.466 30.766C353.466 27.4693 354.255 24.8607 355.831 22.94C357.437 20.9907 359.587 20.016 362.281 20.016C363.227 20.016 364.159 20.1593 365.076 20.446C366.022 20.704 366.954 21.1197 367.871 21.693V10.47H372.945V41H369.204L368.774 39.28C366.653 40.7707 364.489 41.516 362.281 41.516ZM363.571 36.872C365.033 36.872 366.467 36.485 367.871 35.711V25.821C366.467 25.047 365.033 24.66 363.571 24.66C360.246 24.66 358.583 26.6953 358.583 30.766C358.583 34.8367 360.246 36.872 363.571 36.872ZM389.848 41.516C386.293 41.516 383.498 40.5557 381.463 38.635C379.427 36.7143 378.41 34.0913 378.41 30.766C378.41 28.616 378.854 26.7383 379.743 25.133C380.631 23.5277 381.864 22.2807 383.441 21.392C385.017 20.4747 386.852 20.016 388.945 20.016C390.98 20.016 392.743 20.446 394.234 21.306C395.753 22.1373 396.928 23.3127 397.76 24.832C398.591 26.3513 399.007 28.1287 399.007 30.164C399.007 30.5367 398.992 30.9237 398.964 31.325C398.935 31.6977 398.878 32.099 398.792 32.529H383.57C384.114 35.6537 386.221 37.216 389.891 37.216C392.041 37.216 394.148 36.5567 396.212 35.238L398.104 38.979C396.785 39.8677 395.466 40.5127 394.148 40.914C392.829 41.3153 391.396 41.516 389.848 41.516ZM383.613 28.702H394.019C393.531 25.778 391.826 24.316 388.902 24.316C386.006 24.316 384.243 25.778 383.613 28.702ZM413.63 27.584C412.569 27.584 411.666 27.2257 410.921 26.509C410.204 25.7637 409.846 24.8607 409.846 23.8C409.846 22.7107 410.204 21.8077 410.921 21.091C411.666 20.3743 412.569 20.016 413.63 20.016C414.691 20.016 415.579 20.3743 416.296 21.091C417.041 21.8077 417.414 22.7107 417.414 23.8C417.414 24.8607 417.041 25.7637 416.296 26.509C415.579 27.2257 414.691 27.584 413.63 27.584ZM413.63 41.516C412.569 41.516 411.666 41.1577 410.921 40.441C410.204 39.6957 409.846 38.7927 409.846 37.732C409.846 36.6427 410.204 35.7397 410.921 35.023C411.666 34.3063 412.569 33.948 413.63 33.948C414.691 33.948 415.579 34.3063 416.296 35.023C417.041 35.7397 417.414 36.6427 417.414 37.732C417.414 38.7927 417.041 39.6957 416.296 40.441C415.579 41.1577 414.691 41.516 413.63 41.516ZM438.574 27.584C437.513 27.584 436.61 27.2257 435.865 26.509C435.148 25.7637 434.79 24.8607 434.79 23.8C434.79 22.7107 435.148 21.8077 435.865 21.091C436.61 20.3743 437.513 20.016 438.574 20.016C439.634 20.016 440.523 20.3743 441.24 21.091C441.985 21.8077 442.358 22.7107 442.358 23.8C442.358 24.8607 441.985 25.7637 441.24 26.509C440.523 27.2257 439.634 27.584 438.574 27.584ZM438.574 41.516C437.513 41.516 436.61 41.1577 435.865 40.441C435.148 39.6957 434.79 38.7927 434.79 37.732C434.79 36.6427 435.148 35.7397 435.865 35.023C436.61 34.3063 437.513 33.948 438.574 33.948C439.634 33.948 440.523 34.3063 441.24 35.023C441.985 35.7397 442.358 36.6427 442.358 37.732C442.358 38.7927 441.985 39.6957 441.24 40.441C440.523 41.1577 439.634 41.516 438.574 41.516ZM463.517 41.516C462.456 41.516 461.553 41.1577 460.808 40.441C460.091 39.6957 459.733 38.7927 459.733 37.732C459.733 36.6427 460.091 35.7397 460.808 35.023C461.553 34.3063 462.456 33.948 463.517 33.948C464.578 33.948 465.466 34.3063 466.183 35.023C466.928 35.7397 467.301 36.6427 467.301 37.732C467.301 38.7927 466.928 39.6957 466.183 40.441C465.466 41.1577 464.578 41.516 463.517 41.516ZM488.46 41.516C487.4 41.516 486.497 41.1577 485.751 40.441C485.035 39.6957 484.676 38.7927 484.676 37.732C484.676 36.6427 485.035 35.7397 485.751 35.023C486.497 34.3063 487.4 33.948 488.46 33.948C489.521 33.948 490.41 34.3063 491.126 35.023C491.872 35.7397 492.244 36.6427 492.244 37.732C492.244 38.7927 491.872 39.6957 491.126 40.441C490.41 41.1577 489.521 41.516 488.46 41.516Z" fill="#FF5B5B"/>
</g>
<defs>
<filter id="filter0_d_41_106" x="0.752411" y="0.469971" width="501.492" height="51.046" filterUnits="userSpaceOnUse" color-interpolation-filters="sRGB">
<feFlood flood-opacity="0" result="BackgroundImageFix"/>
<feColorMatrix in="SourceAlpha" type="matrix" values="0 0 0 0 0 0 0 0 0 0 0 0 0 0 0 0 0 0 127 0" result="hardAlpha"/>
<feOffset/>
<feGaussianBlur stdDeviation="5"/>
<feComposite in2="hardAlpha" operator="out"/>
<feColorMatrix type="matrix" values="0 0 0 0 1 0 0 0 0 0.358333 0 0 0 0 0.358333 0 0 0 1 0"/>
<feBlend mode="normal" in2="BackgroundImageFix" result="effect1_dropShadow_41_106"/>
<feBlend mode="normal" in="SourceGraphic" in2="effect1_dropShadow_41_106" result="shape"/>
</filter>
</defs>
</svg>
